<mxfile host="app.diagrams.net" modified="2023-05-02T13:34:22.847Z" agent="Mozilla/5.0 (Macintosh; Intel Mac OS X 10_15_7) AppleWebKit/537.36 (KHTML, like Gecko) Chrome/112.0.0.0 Safari/537.36" etag="DX3vaNxJQq_9V6bidDZk" version="21.2.4" type="github">
  <diagram name="第 1 页" id="ia1FdFEVW7x-7T4A9bsR">
    <mxGraphModel dx="954" dy="648" grid="0" gridSize="10" guides="1" tooltips="1" connect="1" arrows="1" fold="1" page="1" pageScale="1" pageWidth="827" pageHeight="1169" math="0" shadow="0">
      <root>
        <mxCell id="0" />
        <mxCell id="1" parent="0" />
        <mxCell id="OSAHbqaYIJd7jO2RB-w5-14" value="" style="edgeStyle=orthogonalEdgeStyle;rounded=0;orthogonalLoop=1;jettySize=auto;html=1;" edge="1" parent="1" source="OSAHbqaYIJd7jO2RB-w5-1" target="OSAHbqaYIJd7jO2RB-w5-6">
          <mxGeometry relative="1" as="geometry" />
        </mxCell>
        <mxCell id="OSAHbqaYIJd7jO2RB-w5-1" value="开始" style="strokeWidth=2;html=1;shape=mxgraph.flowchart.terminator;whiteSpace=wrap;" vertex="1" parent="1">
          <mxGeometry x="261" y="146" width="100" height="60" as="geometry" />
        </mxCell>
        <mxCell id="OSAHbqaYIJd7jO2RB-w5-15" value="" style="edgeStyle=orthogonalEdgeStyle;rounded=0;orthogonalLoop=1;jettySize=auto;html=1;" edge="1" parent="1" source="OSAHbqaYIJd7jO2RB-w5-6" target="OSAHbqaYIJd7jO2RB-w5-13">
          <mxGeometry relative="1" as="geometry" />
        </mxCell>
        <mxCell id="OSAHbqaYIJd7jO2RB-w5-6" value="输入待添加的人脸图像" style="rounded=1;whiteSpace=wrap;html=1;absoluteArcSize=1;arcSize=14;strokeWidth=2;" vertex="1" parent="1">
          <mxGeometry x="251" y="239" width="120" height="50" as="geometry" />
        </mxCell>
        <mxCell id="OSAHbqaYIJd7jO2RB-w5-23" value="" style="edgeStyle=orthogonalEdgeStyle;rounded=0;orthogonalLoop=1;jettySize=auto;html=1;" edge="1" parent="1" source="OSAHbqaYIJd7jO2RB-w5-9" target="OSAHbqaYIJd7jO2RB-w5-22">
          <mxGeometry relative="1" as="geometry" />
        </mxCell>
        <mxCell id="OSAHbqaYIJd7jO2RB-w5-9" value="提取图像特征并存入人脸库中" style="rounded=1;whiteSpace=wrap;html=1;absoluteArcSize=1;arcSize=14;strokeWidth=2;" vertex="1" parent="1">
          <mxGeometry x="251" y="423" width="120" height="50" as="geometry" />
        </mxCell>
        <mxCell id="OSAHbqaYIJd7jO2RB-w5-19" style="edgeStyle=orthogonalEdgeStyle;rounded=0;orthogonalLoop=1;jettySize=auto;html=1;entryX=1;entryY=0.5;entryDx=0;entryDy=0;" edge="1" parent="1" source="OSAHbqaYIJd7jO2RB-w5-11" target="OSAHbqaYIJd7jO2RB-w5-6">
          <mxGeometry relative="1" as="geometry">
            <Array as="points">
              <mxPoint x="573" y="356" />
              <mxPoint x="573" y="264" />
            </Array>
          </mxGeometry>
        </mxCell>
        <mxCell id="OSAHbqaYIJd7jO2RB-w5-11" value="抛出异常，要求重新输入" style="rounded=1;whiteSpace=wrap;html=1;absoluteArcSize=1;arcSize=14;strokeWidth=2;" vertex="1" parent="1">
          <mxGeometry x="433" y="331" width="120" height="50" as="geometry" />
        </mxCell>
        <mxCell id="OSAHbqaYIJd7jO2RB-w5-16" value="是" style="edgeStyle=orthogonalEdgeStyle;rounded=0;orthogonalLoop=1;jettySize=auto;html=1;" edge="1" parent="1" source="OSAHbqaYIJd7jO2RB-w5-13" target="OSAHbqaYIJd7jO2RB-w5-9">
          <mxGeometry relative="1" as="geometry" />
        </mxCell>
        <mxCell id="OSAHbqaYIJd7jO2RB-w5-17" value="" style="edgeStyle=orthogonalEdgeStyle;rounded=0;orthogonalLoop=1;jettySize=auto;html=1;" edge="1" parent="1" source="OSAHbqaYIJd7jO2RB-w5-13" target="OSAHbqaYIJd7jO2RB-w5-11">
          <mxGeometry relative="1" as="geometry" />
        </mxCell>
        <mxCell id="OSAHbqaYIJd7jO2RB-w5-18" value="否·" style="edgeLabel;html=1;align=center;verticalAlign=middle;resizable=0;points=[];" vertex="1" connectable="0" parent="OSAHbqaYIJd7jO2RB-w5-17">
          <mxGeometry x="-0.191" y="-1" relative="1" as="geometry">
            <mxPoint y="1" as="offset" />
          </mxGeometry>
        </mxCell>
        <mxCell id="OSAHbqaYIJd7jO2RB-w5-13" value="是否检测到人脸" style="strokeWidth=2;html=1;shape=mxgraph.flowchart.decision;whiteSpace=wrap;" vertex="1" parent="1">
          <mxGeometry x="236" y="326" width="150" height="60" as="geometry" />
        </mxCell>
        <mxCell id="OSAHbqaYIJd7jO2RB-w5-20" value="结束" style="strokeWidth=2;html=1;shape=mxgraph.flowchart.terminator;whiteSpace=wrap;" vertex="1" parent="1">
          <mxGeometry x="261" y="573" width="100" height="60" as="geometry" />
        </mxCell>
        <mxCell id="OSAHbqaYIJd7jO2RB-w5-24" value="" style="edgeStyle=orthogonalEdgeStyle;rounded=0;orthogonalLoop=1;jettySize=auto;html=1;" edge="1" parent="1" source="OSAHbqaYIJd7jO2RB-w5-22" target="OSAHbqaYIJd7jO2RB-w5-20">
          <mxGeometry relative="1" as="geometry" />
        </mxCell>
        <mxCell id="OSAHbqaYIJd7jO2RB-w5-22" value="保存人脸图像" style="rounded=1;whiteSpace=wrap;html=1;absoluteArcSize=1;arcSize=14;strokeWidth=2;" vertex="1" parent="1">
          <mxGeometry x="251" y="498" width="120" height="50" as="geometry" />
        </mxCell>
      </root>
    </mxGraphModel>
  </diagram>
</mxfile>
